# xmcd CD database file
#
# Track frame offsets:
#	150
#	8609
#	19327
#	41160
#	57733
#	69413
#	89251
#	98999
#	110835
#	124070
#	140875
#	165417
#	182807
#	194127
#	210421
#
# Disc length: 2976 seconds
#
# Revision: 0
# Processed by: cddbd v1.5.2PL0 Copyright (c) Steve Scherf et al.
# Submitted via: CDex 1.70beta2
#
DISCID=e00b9e0f
DTITLE=Gabriela de la Paz - Gabriela de la Paz
DYEAR=2006
DGENRE=Salsa
TTITLE0=Las Mananitas
TTITLE1=Cancion Mixteca
TTITLE2=Guadalajara
TTITLE3=La Paloma
TTITLE4=Alla en el Rancho Grande
TTITLE5=Cucurrucucu Paloma
TTITLE6=El Rey
TTITLE7=Volver Volver
TTITLE8=Cancion a Cuernavaca
TTITLE9=Cuando Calienta el Sol
TTITLE10=No Ilores por mi Argentina
TTITLE11=Que Sera
TTITLE12=Shiquitibum
TTITLE13=Eres Tu
TTITLE14=Mexico Lindo
EXTD=YEAR: 2006
EXTT0=
EXTT1=
EXTT2=
EXTT3=
EXTT4=
EXTT5=
EXTT6=
EXTT7=
EXTT8=
EXTT9=
EXTT10=
EXTT11=
EXTT12=
EXTT13=
EXTT14=
PLAYORDER=
